HIERARCHY
ROOT root
{
	OFFSET	0	13.1	24.9
	CHANNELS 6  Xposition Yposition Zposition Xrotation Yrotation Zrotation
	JOINT spine_1
	{
		OFFSET	0	9.99999	0
		CHANNELS 3  Xrotation Yrotation Zrotation
		JOINT spine_2
		{
			OFFSET	0	112	-10
			CHANNELS 3  Xrotation Yrotation Zrotation
			JOINT spine_3
			{
				OFFSET	0	206.5	19.3
				CHANNELS 3  Xrotation Yrotation Zrotation
				JOINT spine_4
				{
					OFFSET	0	110.4	14.6
					CHANNELS 3  Xrotation Yrotation Zrotation
					JOINT neck_1
					{
						OFFSET	0	71.8	-50.3
						CHANNELS 3  Xrotation Yrotation Zrotation
						JOINT neck_2
						{
							OFFSET	0	86.2	-25.8
							CHANNELS 3  Xrotation Yrotation Zrotation
							JOINT head_ee
							{
								OFFSET	0	179.8	-8.7
								CHANNELS 3  Xrotation Yrotation Zrotation
								End Site
								{
									OFFSET	1	0	0
								}
							}
						}
					}
					JOINT left_clavicle
					{
						OFFSET	-43.2	22.4	-70.8
						CHANNELS 3  Xrotation Yrotation Zrotation
						JOINT left_shoulder
						{
							OFFSET	-93.9	-5.79999	48.7
							CHANNELS 3  Xrotation Yrotation Zrotation
							JOINT left_elbow
							{
								OFFSET	-291.4	-30.8	15.2
								CHANNELS 3  Xrotation Yrotation Zrotation
								JOINT left_lowarm_twist
								{
									OFFSET	-110.7	-3.89999	13.6
									CHANNELS 3  Xrotation Yrotation Zrotation
									JOINT left_hand
									{
										OFFSET	-110.7	-3.89999	13.6
										CHANNELS 3  Xrotation Yrotation Zrotation
										JOINT left_ee
										{
											OFFSET	-80.8	-5.10001	12.1
											CHANNELS 3  Xrotation Yrotation Zrotation
											End Site
											{
												OFFSET	1	0	0
											}
										}
									}
								}
							}
						}
					}
					JOINT right_clavicle
					{
						OFFSET	43.2	22.4	-70.8
						CHANNELS 3  Xrotation Yrotation Zrotation
						JOINT right_shoulder
						{
							OFFSET	93.9	-5.79999	48.7
							CHANNELS 3  Xrotation Yrotation Zrotation
							JOINT right_elbow
							{
								OFFSET	291.4	-30.8	15.2
								CHANNELS 3  Xrotation Yrotation Zrotation
								JOINT right_lowarm_twist
								{
									OFFSET	110.7	-3.89999	13.6
									CHANNELS 3  Xrotation Yrotation Zrotation
									JOINT right_hand
									{
										OFFSET	110.7	-3.89999	13.6
										CHANNELS 3  Xrotation Yrotation Zrotation
										JOINT right_ee
										{
											OFFSET	80.8	-5.10001	12.1
											CHANNELS 3  Xrotation Yrotation Zrotation
											End Site
											{
												OFFSET	1	0	0
											}
										}
									}
								}
							}
						}
					}
				}
			}
		}
	}
	JOINT left_hip
	{
		OFFSET	-82.8	-127.5	0.300001
		CHANNELS 3  Xrotation Yrotation Zrotation
		JOINT left_knee
		{
			OFFSET	-28.2	-396.7	2.2
			CHANNELS 3  Xrotation Yrotation Zrotation
			JOINT left_ankle
			{
				OFFSET	-11.7	-411.3	35.4
				CHANNELS 3  Xrotation Yrotation Zrotation
				JOINT left_toes
				{
					OFFSET	0	-60	-88.6
					CHANNELS 3  Xrotation Yrotation Zrotation
					JOINT left_foot_ee
					{
						OFFSET	-22.5	-16.5	-42.2
						CHANNELS 3  Xrotation Yrotation Zrotation
						End Site
						{
							OFFSET	1	0	0
						}
					}
				}
			}
		}
	}
	JOINT right_hip
	{
		OFFSET	82.8	-127.5	0.300001
		CHANNELS 3  Xrotation Yrotation Zrotation
		JOINT right_knee
		{
			OFFSET	28.2	-396.7	2.2
			CHANNELS 3  Xrotation Yrotation Zrotation
			JOINT right_ankle
			{
				OFFSET	11.7	-411.3	35.4
				CHANNELS 3  Xrotation Yrotation Zrotation
				JOINT right_toes
				{
					OFFSET	0	-60	-88.6
					CHANNELS 3  Xrotation Yrotation Zrotation
					JOINT right_foot_ee
					{
						OFFSET	22.5	-16.5	-42.2
						CHANNELS 3  Xrotation Yrotation Zrotation
						End Site
						{
							OFFSET	1	0	0
						}
					}
				}
			}
		}
	}
}
MOTION
Frames: 14
Frame Time: 0.02
2926.69178918 690.668 -1891.5754583 9.95455829469 24.8348081931 -9.02996748088 -3.55678 0.306239 0.87773 -3.55638 0.249768 0.895436 -3.55172 -0.00159133 0.929614 -3.5529 0.145238 0.918201 5.28433 -0.481361 -0.41998 5.28481 -0.454904 -0.504469 -0.0 0.0 -0.0 8.08193 -4.61069 15.7823 13.5436 1.67179 61.0109 0.995749 -26.255 0.232227 -30.5854 -2.01001 3.30585 1.87947 -9.9393 8.49285 -0.0 0.0 -0.0 9.99433 15.1919 -19.672 -20.6948 19.3381 -60.8841 0.333369 9.37746 -0.027342 -39.592 2.90788 -4.0312 -2.3885 -3.25857 14.5858 0.0 0.0 0.0 5.77693 -17.2616 13.5278 -22.6164 0.255394 3.43878 2.97883 13.2104 -0.434252 20.7117 -0.0 -0.0 -0.0 0.0 -0.0 15.6053 11.1196 13.4021 -63.0025 2.53277 -8.84769 41.2498 -23.0856 5.22564 -16.9601 0.0 0.0 0.0 0.0 0.0 
2913.98872973 691.425 -1902.23339862 9.60958236493 24.8178845331 -9.00320374642 -3.44242 0.307707 1.03919 -3.44185 0.240961 1.05666 -3.43641 -0.0514801 1.08256 -3.43802 0.120126 1.07711 4.5028 -0.0313267 0.860128 4.50624 -0.801668 0.975019 -0.0 0.0 -0.0 7.89222 -5.02732 15.3855 15.9933 0.737432 58.464 1.0785 -28.1129 0.270036 -30.0643 -1.96169 3.25969 1.8466 -10.7511 7.91356 -0.0 0.0 -0.0 9.98326 14.3056 -19.6844 -21.032 19.2259 -61.5895 0.315827 8.89213 -0.0245571 -39.2132 2.86787 -4.00358 -2.00939 -1.07435 13.0417 0.0 0.0 0.0 3.68401 -16.6312 13.4661 -20.4883 0.289514 3.11404 1.70698 13.5051 -0.249766 20.567 -0.0 -0.0 -0.0 0.0 -0.0 18.8071 10.4414 11.9041 -64.3187 2.68393 -8.98342 42.1383 -23.128 5.30777 -16.8412 0.0 0.0 0.0 0.0 0.0 
2903.20559888 692.052 -1918.99944524 9.42807097352 22.4684868948 -8.88307112604 -3.3998 0.262001 1.16047 -3.39907 0.187631 1.17479 -3.39406 -0.133697 1.18214 -3.39601 0.0546634 1.18842 3.82544 1.22034 2.10116 3.83668 0.300313 2.44211 -0.0 0.0 -0.0 7.26447 -5.70536 14.0733 17.6519 0.560618 57.3632 1.08942 -28.3534 0.275201 -29.0785 -1.87145 3.17119 1.70241 -9.40018 7.52084 -0.0 0.0 -0.0 10.1731 13.9176 -20.1202 -22.8572 21.808 -60.8979 0.31165 8.77635 -0.0239155 -39.2387 2.87057 -4.00545 -1.63545 0.177128 11.0709 0.0 0.0 0.0 0.597671 -12.8577 12.8846 -18.5636 0.309967 2.81943 5.59218 12.028 -0.80807 21.1507 -0.0 -0.0 -0.0 0.0 -0.0 21.6844 10.4426 10.2013 -65.3168 2.80062 -9.08404 42.0707 -22.8828 5.29424 -16.2059 0.0 0.0 0.0 0.0 0.0 
2896.2112868 691.647 -1937.31526036 9.79082604547 21.0575965096 -8.95467790284 -3.57802 0.320905 1.18091 -3.57728 0.245116 1.19894 -3.57085 -0.0885311 1.22053 -3.57291 0.105325 1.21919 3.57115 1.50206 2.56756 3.58794 0.397751 2.97988 -0.0 0.0 -0.0 7.07509 -5.82903 13.6783 19.498 -0.69172 56.3007 1.13796 -29.4096 0.29865 -29.8303 -1.94013 3.23883 1.73224 -10.9287 7.05798 -0.0 0.0 -0.0 10.1313 13.2139 -20.0512 -22.6432 20.489 -61.4769 0.317533 8.93937 -0.0248214 -39.1558 2.86184 -3.99937 -1.47003 0.455768 10.0727 0.0 0.0 0.0 -0.855597 -13.0556 13.0056 -18.8492 0.307557 2.86319 4.6868 11.0769 -0.678341 20.558 -0.0 -0.0 -0.0 0.0 -0.0 23.0329 9.94532 9.72985 -66.0179 2.88363 -9.1535 42.1685 -23.537 5.32317 -16.3742 0.0 0.0 0.0 0.0 0.0 
2866.65493516 687.846 -1966.49087195 10.6333446221 21.285040769 -10.0604806299 -3.486 0.303489 1.46418 -3.48484 0.209714 1.48052 -3.47757 -0.196437 1.48234 -3.48064 0.040109 1.49476 1.2854 2.21305 2.82873 1.30571 1.54695 3.28883 -0.0 0.0 -0.0 6.13388 -6.02946 11.7309 20.8197 -0.436102 55.3763 1.51252 -36.8402 0.503762 -28.4094 -1.81107 3.11025 1.61873 -12.9664 5.3926 -0.0 0.0 -0.0 10.0209 11.3323 -19.8569 -23.9407 20.8087 -62.3657 0.275653 7.77586 -0.0187339 -38.6213 2.80575 -3.95989 -1.07852 2.59119 8.36866 0.0 0.0 0.0 -6.10753 -12.3584 14.0161 -16.2697 0.321403 2.46769 5.58991 9.37306 -0.806083 20.8733 -0.0 -0.0 -0.0 0.0 -0.0 24.1271 10.0803 8.9923 -66.1695 2.90169 -9.16839 41.3189 -24.5829 5.27892 -15.2088 0.0 0.0 0.0 0.0 0.0 
2845.65029618 685.188 -1975.72166632 10.9516125552 23.1445881266 -11.105087658 -3.50323 0.240786 1.58502 -3.50184 0.139452 1.59712 -3.49591 -0.296025 1.57564 -3.49938 -0.0435009 1.60261 0.721945 2.56493 3.15551 0.747518 1.93507 3.6716 -0.0 0.0 -0.0 5.82658 -8.07907 11.0115 21.127 -0.611243 55.9566 1.68685 -39.8793 0.61199 -27.5919 -1.73828 3.03485 1.34107 -12.8289 3.57869 -0.0 0.0 -0.0 9.85173 10.96 -19.4931 -24.4545 19.5014 -63.0508 0.286855 8.08775 -0.0202796 -37.8617 2.72668 -3.9029 -0.950249 2.6673 7.53217 0.0 0.0 0.0 -8.041 -13.578 15.2004 -14.0127 0.318906 2.12143 5.66557 9.77798 -0.816955 21.1263 -0.0 -0.0 -0.0 0.0 -0.0 28.839 10.7141 5.75317 -57.3221 1.91786 -8.22384 35.3048 -24.5325 4.68098 -18.2279 0.0 0.0 0.0 0.0 0.0 
2828.00627332 681.402 -1982.41563643 10.9076814772 25.107223042 -12.1670659976 -3.41218 0.0955863 1.72217 -3.41053 -0.0141769 1.72476 -3.40888 -0.475922 1.65788 -3.41265 -0.208158 1.71222 0.188919 2.49746 3.77904 0.225776 1.33995 4.33218 -0.0 0.0 -0.0 5.86127 -9.08481 11.0354 22.2584 -1.22246 55.7427 1.84322 -42.3943 0.714885 -28.0815 -1.78174 3.08013 1.24143 -12.7737 2.93106 -0.0 0.0 -0.0 9.84647 10.2202 -19.4947 -23.5752 17.3974 -63.7242 0.205602 5.81563 -0.0104435 -37.9058 2.73125 -3.90623 -0.820024 4.28368 7.35571 0.0 0.0 0.0 -7.85667 -16.7978 16.9725 -13.9926 0.318822 2.11836 1.53882 10.4974 -0.224501 20.9061 -0.0 -0.0 -0.0 0.0 -0.0 32.2166 11.3369 4.77083 -49.1095 1.1455 -7.2228 30.2891 -26.1464 4.16984 -20.0512 0.0 0.0 0.0 0.0 0.0 
2832.71265651 681.402 -1987.58341624 10.8336335257 24.2684382198 -11.9897844309 -3.41218 0.0955863 1.72217 -3.41053 -0.0141769 1.72476 -3.40888 -0.475922 1.65788 -3.41265 -0.208158 1.71222 0.188919 2.49746 3.77904 0.225776 1.33995 4.33218 -0.0 0.0 -0.0 5.86127 -9.08481 11.0354 22.2584 -1.22246 55.7427 1.84322 -42.3943 0.714885 -28.0815 -1.78174 3.08013 1.24143 -12.7737 2.93106 -0.0 0.0 -0.0 9.84647 10.2202 -19.4947 -23.5752 17.3974 -63.7242 0.205602 5.81563 -0.0104435 -37.9058 2.73125 -3.90623 -0.820024 4.28368 7.35571 0.0 0.0 0.0 -7.85667 -16.7978 16.9725 -13.9926 0.318822 2.11836 1.53882 10.4974 -0.224501 20.9061 -0.0 -0.0 -0.0 0.0 -0.0 32.2166 11.3369 4.77083 -49.1095 1.1455 -7.2228 30.2891 -26.1464 4.16984 -20.0512 0.0 0.0 0.0 0.0 0.0 
2817.94725468 680.863 -1991.30613708 9.5343484601 25.3828748388 -11.3981132048 -3.22061 0.025115 1.57767 -3.21923 -0.0753144 1.57607 -3.21972 -0.490021 1.49987 -3.22278 -0.247025 1.55842 0.262875 3.43278 3.55989 0.297045 3.1785 4.19225 -0.0 0.0 -0.0 5.6939 -10.2844 10.6222 22.1984 -0.980539 56.2862 1.96204 -44.1799 0.796365 -27.7678 -1.75386 3.05116 1.10865 -12.745 2.04879 -0.0 0.0 -0.0 10.0821 9.56978 -20.0178 -23.9662 17.414 -62.8496 0.1878 5.31509 -0.00871694 -37.8181 2.72216 -3.89959 -0.656499 4.78055 6.46196 0.0 0.0 0.0 -7.99547 -16.706 17.0321 -12.2193 0.3072 1.84654 1.85287 10.206 -0.270056 21.0249 -0.0 -0.0 -0.0 0.0 -0.0 32.9445 11.6774 4.36605 -43.563 0.708859 -6.48972 27.3005 -26.7518 3.83 -20.7874 0.0 0.0 0.0 0.0 0.0 
2811.58124678 678.994 -2006.53058161 7.97606125102 23.0494600498 -10.1890018079 -3.09994 0.238213 1.59534 -3.09853 0.136228 1.60726 -3.0928 -0.290707 1.58662 -3.09631 -0.0365159 1.61261 1.96694 5.55256 1.60344 2.02633 8.40707 2.21989 -0.0 0.0 -0.0 5.22023 -12.37 9.49808 21.865 0.572219 54.8228 1.99659 -44.6796 0.820551 -26.7072 -1.66074 2.9521 0.950212 -13.93 0.467347 -0.0 0.0 -0.0 10.2075 9.92144 -20.289 -24.9779 18.6768 -62.173 0.248017 7.00445 -0.0151791 -37.1956 2.65797 -3.85206 -0.481457 5.17374 5.44571 0.0 0.0 0.0 -9.11798 -13.4596 16.8169 -10.3386 0.285687 1.55877 6.57677 9.20934 -0.945525 21.5755 -0.0 -0.0 -0.0 0.0 -0.0 31.9598 10.6812 2.84732 -30.5361 -0.0231605 -4.63105 20.5245 -22.8349 2.90429 -22.369 0.0 0.0 0.0 0.0 0.0 
2814.29242163 678.994 -2009.444959 7.94932483932 22.5952486987 -10.1200719126 -3.09994 0.238213 1.59534 -3.09853 0.136228 1.60726 -3.0928 -0.290707 1.58662 -3.09631 -0.0365159 1.61261 1.96694 5.55256 1.60344 2.02633 8.40707 2.21989 -0.0 0.0 -0.0 5.22023 -12.37 9.49808 21.865 0.572219 54.8228 1.99659 -44.6796 0.820551 -26.7072 -1.66074 2.9521 0.950212 -13.93 0.467347 -0.0 0.0 -0.0 10.2075 9.92144 -20.289 -24.9779 18.6768 -62.173 0.248017 7.00445 -0.0151791 -37.1956 2.65797 -3.85206 -0.481457 5.17374 5.44571 0.0 0.0 0.0 -9.11798 -13.4596 16.8169 -10.3386 0.285687 1.55877 6.57677 9.20934 -0.945525 21.5755 -0.0 -0.0 -0.0 0.0 -0.0 31.9598 10.6812 2.84732 -30.5361 -0.0231605 -4.63105 20.5245 -22.8349 2.90429 -22.369 0.0 0.0 0.0 0.0 0.0 
2769.02253717 663.569 -2061.7027677 4.7783168926 24.9736295451 -7.83783132366 -2.79755 0.317202 1.47954 -2.79636 0.222423 1.49672 -2.78888 -0.170489 1.50352 -2.79203 0.0690751 1.51157 5.32256 8.36666 -3.59758 5.81188 17.4567 -3.81353 -0.0 0.0 -0.0 4.96303 -13.835 8.85187 19.7745 -0.441831 54.0316 2.52234 -51.3206 1.21192 -27.3345 -1.71559 3.0109 0.663659 -14.875 -1.86718 -0.0 0.0 -0.0 10.8766 7.72503 -21.7586 -28.3659 18.7293 -61.9002 0.247153 6.98029 -0.0150738 -34.9402 2.42983 -3.67409 -0.314428 5.11051 4.28863 0.0 0.0 0.0 -11.8448 -14.1608 16.0165 -6.01687 0.200557 0.901211 13.945 8.90646 -1.95409 22.0496 -0.0 -0.0 -0.0 0.0 -0.0 30.7676 9.2456 -0.848706 -8.79633 -0.261004 -1.32341 8.94656 -20.567 1.30775 -23.6074 0.0 0.0 0.0 0.0 0.0 
2732.67043469 651.277 -2106.47523695 3.34979129066 27.9359395636 -6.55770446999 -2.25481 0.162091 1.11537 -2.25413 0.0907931 1.12342 -2.25157 -0.191155 1.11076 -2.25329 -0.0133447 1.127 7.94693 9.5704 -1.9571 8.47515 17.7631 -2.19077 -0.0 0.0 -0.0 4.99552 -14.1003 8.90164 16.854 -0.435961 55.8364 2.82535 -54.4443 1.45363 -29.3432 -1.89553 3.19511 0.757529 -11.8713 0.0610808 -0.0 0.0 -0.0 10.914 6.41096 -21.8212 -29.7604 17.2497 -62.3853 0.221526 6.2626 -0.0121189 -34.8581 2.42165 -3.66744 0.27202 5.36615 0.440259 0.0 0.0 0.0 -13.9549 -15.0272 14.7262 -6.92984 0.222671 1.03957 18.0573 4.78687 -2.48941 24.8433 -0.0 -0.0 -0.0 0.0 -0.0 32.5033 7.27716 -1.25395 -12.1016 -0.30613 -1.8285 14.8527 -19.9933 2.12312 -20.6258 0.0 0.0 0.0 0.0 0.0 
2738.05343311 651.277 -2111.87990132 3.32845420594 27.2359978701 -6.51162877682 -2.25481 0.162091 1.11537 -2.25413 0.0907931 1.12342 -2.25157 -0.191155 1.11076 -2.25329 -0.0133447 1.127 7.94693 9.5704 -1.9571 8.47515 17.7631 -2.19077 -0.0 0.0 -0.0 4.99552 -14.1003 8.90164 16.854 -0.435961 55.8364 2.82535 -54.4443 1.45363 -29.3432 -1.89553 3.19511 0.757529 -11.8713 0.0610808 -0.0 0.0 -0.0 10.914 6.41096 -21.8212 -29.7604 17.2497 -62.3853 0.221526 6.2626 -0.0121189 -34.8581 2.42165 -3.66744 0.27202 5.36615 0.440259 0.0 0.0 0.0 -13.9549 -15.0272 14.7262 -6.92984 0.222671 1.03957 18.0573 4.78687 -2.48941 24.8433 -0.0 -0.0 -0.0 0.0 -0.0 32.5033 7.27716 -1.25395 -12.1016 -0.30613 -1.8285 14.8527 -19.9933 2.12312 -20.6258 0.0 0.0 0.0 0.0 0.0 
